<svg xmlns="http://www.w3.org/2000/svg" viewBox="0 0 1440 320">
    <defs>
        <linearGradient id="grad1" x1="0%" y1="0%" x2="100%" y2="0%">
            <stop offset="0%" style="stop-color:#DE4982;stop-opacity:1" />
            <stop offset="100%" style="stop-color:#EC8F4F;stop-opacity:1" />
        </linearGradient>
    </defs>
    <path fill="url(#grad1)"
        d="M0,96L40,85.3C80,75,160,53,240,85.3C320,117,400,203,480,202.7C560,203,640,117,720,122.7C800,128,880,224,960,256C1040,288,1120,256,1200,213.3C1280,171,1360,117,1400,90.7L1440,64L1440,0L1400,0C1360,0,1280,0,1200,0C1120,0,1040,0,960,0C880,0,800,0,720,0C640,0,560,0,480,0C400,0,320,0,240,0C160,0,80,0,40,0L0,0Z">
    </path>
</svg>